<svg id="Capa_1" enable-background="new 0 0 512.002 512.002" height="512" viewBox="0 0 512.002 512.002" width="512" xmlns="http://www.w3.org/2000/svg"><g><path d="m110.001 292v-132c0-5.522-4.478-10-10-10s-10 4.478-10 10v132c0 5.522 4.478 10 10 10s10-4.478 10-10z"/><path d="m482.001 352c0-11.028 8.972-20 20-20 5.522 0 10-4.478 10-10s-4.478-10-10-10h-222c-7.283 0-14.112 1.966-20 5.382v-217.382c0-5.522-4.478-10-10-10h-80v-80c0-5.522-4.478-10-10-10h-120c-5.522 0-10 4.478-10 10v170.999c0 5.522 4.478 10 10 10s10-4.478 10-10v-100.999h100v292h-100v-101.001c0-5.522-4.478-10-10-10s-10 4.478-10 10v161.001h-20c-5.522 0-10 4.478-10 10s4.478 10 10 10h53.82l27.236 54.472c2.474 4.949 8.487 6.939 13.416 4.473 4.94-2.47 6.942-8.477 4.473-13.416l-22.765-45.529h339.64l-22.764 45.528c-2.47 4.939-.468 10.946 4.473 13.416 4.939 2.47 10.947.467 13.416-4.473l27.235-54.471h53.82c5.522 0 10-4.478 10-10s-4.478-10-10-10c-11.028 0-20-8.972-20-20zm-312-182h70v202h-70zm0 222h70v40h-70zm70-282v40h-70v-40zm-190-50v-40h100v40zm0 332h100v40h-100zm230 40c-11.028 0-20-8.972-20-20v-60c0-11.028 8.972-20 20-20.01h187.368c-3.413 5.897-5.368 12.73-5.368 20.01v20h-152c-5.522 0-10 4.478-10 10s4.478 10 10 10h152v20c0 7.283 1.966 14.112 5.382 20z"/><circle cx="40.001" cy="225.999" r="10"/></g></svg>