<?xml version="1.0" encoding="UTF-8" standalone="no"?>
<!-- Generator: Adobe Illustrator 19.0.0, SVG Export Plug-In . SVG Version: 6.00 Build 0)  -->

<svg
   xmlns:dc="http://purl.org/dc/elements/1.1/"
   xmlns:cc="http://creativecommons.org/ns#"
   xmlns:rdf="http://www.w3.org/1999/02/22-rdf-syntax-ns#"
   xmlns:svg="http://www.w3.org/2000/svg"
   xmlns="http://www.w3.org/2000/svg"
   xmlns:sodipodi="http://sodipodi.sourceforge.net/DTD/sodipodi-0.dtd"
   xmlns:inkscape="http://www.inkscape.org/namespaces/inkscape"
   version="1.1"
   id="Capa_1"
   x="0px"
   y="0px"
   viewBox="0 0 685.001 512.001"
   xml:space="preserve"
   sodipodi:docname="laptop.svg"
   width="685.00098"
   height="512.00098"
   inkscape:version="0.92.4 (5da689c313, 2019-01-14)"><metadata
   id="metadata49"><rdf:RDF><cc:Work
       rdf:about=""><dc:format>image/svg+xml</dc:format><dc:type
         rdf:resource="http://purl.org/dc/dcmitype/StillImage" /><dc:title></dc:title></cc:Work></rdf:RDF></metadata><defs
   id="defs47" /><sodipodi:namedview
   pagecolor="#ffffff"
   bordercolor="#666666"
   borderopacity="1"
   objecttolerance="10"
   gridtolerance="10"
   guidetolerance="10"
   inkscape:pageopacity="0"
   inkscape:pageshadow="2"
   inkscape:window-width="1920"
   inkscape:window-height="1017"
   id="namedview45"
   showgrid="false"
   inkscape:zoom="0.92187324"
   inkscape:cx="96.028906"
   inkscape:cy="222.35687"
   inkscape:window-x="-8"
   inkscape:window-y="-8"
   inkscape:window-maximized="1"
   inkscape:current-layer="Capa_1" />
<g
   id="g6"
   transform="matrix(1.3284122,0,0,1.3284122,2.1580052,-82.835864)">
	<g
   id="g4">
		<path
   d="M 504.53,375.058 H 489.546 V 111.17 c 0,-16.925 -13.77,-30.695 -30.696,-30.695 H 53.149 c -16.926,0 -30.696,13.77 -30.696,30.695 V 375.059 H 7.47 c -4.125,0 -7.47,3.344 -7.47,7.47 v 8.943 c 0,22.086 17.968,40.054 40.054,40.054 h 327.989 c 4.125,0 7.47,-3.344 7.47,-7.469 0,-4.126 -3.344,-7.47 -7.47,-7.47 H 40.054 c -13.849,0 -25.115,-11.267 -25.115,-25.115 v -1.474 h 178.32 v 13.294 c 0,4.126 3.344,7.47 7.47,7.47 h 110.543 c 4.125,0 7.47,-3.344 7.47,-7.47 v -13.294 h 178.32 v 1.474 c 0,13.849 -11.267,25.115 -25.115,25.115 h -51.118 c -4.125,0 -7.47,3.344 -7.47,7.47 0,4.126 3.344,7.469 7.47,7.469 h 51.118 c 22.086,0 40.054,-17.969 40.054,-40.054 v -8.943 c -10e-4,-4.127 -3.345,-7.471 -7.471,-7.471 z m -200.728,20.764 h -95.604 v -5.825 h 95.604 z M 474.608,374.428 H 37.393 V 111.17 c 0,-8.688 7.068,-15.756 15.757,-15.756 h 405.701 c 8.688,0 15.757,7.068 15.757,15.756 z"
   id="path2"
   inkscape:connector-curvature="0" />
	</g>
</g>
<g
   id="g12"
   transform="matrix(1.3284122,0,0,1.3284122,2.1580052,-82.835864)">
	<g
   id="g10">
		<path
   d="M 440.307,109.615 H 71.693 c -12.182,0 -22.093,9.911 -22.093,22.094 v 79.475 c 0,4.126 3.344,7.47 7.47,7.47 4.126,0 7.47,-3.344 7.47,-7.47 v -79.475 c 0,-3.945 3.209,-7.154 7.153,-7.154 h 368.613 c 3.944,0 7.153,3.21 7.153,7.154 V 346.218 H 64.54 v -81.254 c 0,-4.126 -3.344,-7.47 -7.47,-7.47 -4.126,0 -7.47,3.344 -7.47,7.47 v 88.723 c 0,4.126 3.344,7.47 7.47,7.47 h 397.86 c 4.125,0 7.47,-3.344 7.47,-7.47 V 131.708 c -10e-4,-12.183 -9.912,-22.093 -22.093,-22.093 z"
   id="path8"
   inkscape:connector-curvature="0" />
	</g>
</g>
<g
   id="g14">
</g>
<g
   id="g16">
</g>
<g
   id="g18">
</g>
<g
   id="g20">
</g>
<g
   id="g22">
</g>
<g
   id="g24">
</g>
<g
   id="g26">
</g>
<g
   id="g28">
</g>
<g
   id="g30">
</g>
<g
   id="g32">
</g>
<g
   id="g34">
</g>
<g
   id="g36">
</g>
<g
   id="g38">
</g>
<g
   id="g40">
</g>
<g
   id="g42">
</g>
</svg>