<?xml version="1.0" encoding="UTF-8" standalone="no"?>
<!-- Generator: Adobe Illustrator 19.0.0, SVG Export Plug-In . SVG Version: 6.00 Build 0)  -->

<svg
   xmlns:dc="http://purl.org/dc/elements/1.1/"
   xmlns:cc="http://creativecommons.org/ns#"
   xmlns:rdf="http://www.w3.org/1999/02/22-rdf-syntax-ns#"
   xmlns:svg="http://www.w3.org/2000/svg"
   xmlns="http://www.w3.org/2000/svg"
   xmlns:sodipodi="http://sodipodi.sourceforge.net/DTD/sodipodi-0.dtd"
   xmlns:inkscape="http://www.inkscape.org/namespaces/inkscape"
   version="1.1"
   id="Capa_1"
   x="0px"
   y="0px"
   viewBox="0 0 675.00001 512.00001"
   xml:space="preserve"
   sodipodi:docname="teapot.svg"
   width="675"
   height="512"
   inkscape:version="0.92.4 (5da689c313, 2019-01-14)"><metadata
   id="metadata43"><rdf:RDF><cc:Work
       rdf:about=""><dc:format>image/svg+xml</dc:format><dc:type
         rdf:resource="http://purl.org/dc/dcmitype/StillImage" /><dc:title></dc:title></cc:Work></rdf:RDF></metadata><defs
   id="defs41" /><sodipodi:namedview
   pagecolor="#ffffff"
   bordercolor="#666666"
   borderopacity="1"
   objecttolerance="10"
   gridtolerance="10"
   guidetolerance="10"
   inkscape:pageopacity="0"
   inkscape:pageshadow="2"
   inkscape:window-width="1920"
   inkscape:window-height="1017"
   id="namedview39"
   showgrid="false"
   inkscape:zoom="0.65186662"
   inkscape:cx="-126.06624"
   inkscape:cy="470.85295"
   inkscape:window-x="-8"
   inkscape:window-y="-8"
   inkscape:window-maximized="1"
   inkscape:current-layer="Capa_1" />
<g
   id="g6"
   transform="matrix(1.3102346,0,0,1.3102346,2.0826194,-79.261023)">
	<g
   id="g4">
		<path
   d="m 504.154,272.011 c -1.623,-3.81 -6.027,-5.584 -9.837,-3.958 -3.81,1.623 -5.581,6.027 -3.958,9.837 27.468,64.454 -35.684,131.734 -102.004,107.198 3.047,-4.859 5.81,-9.86 8.295,-14.975 41.065,13.293 83.268,-17.568 83.268,-60.659 0,-40.198 -37.069,-70.654 -76.711,-62.385 -1.928,-5.372 -4.15,-10.645 -6.648,-15.783 29.378,-7.369 61.514,2.21 81.924,27.045 2.629,3.201 7.355,3.662 10.552,1.032 3.199,-2.629 3.661,-7.353 1.032,-10.552 -24.724,-30.085 -64.492,-41.767 -100.921,-31.019 -2.017,-3.3 -4.159,-6.532 -6.421,-9.687 8.442,-3.363 14.428,-11.612 14.428,-21.24 v -1.281 c 0,-12.572 -10.205,-22.804 -22.766,-22.853 -25.124,-28.095 -58.948,-46.364 -95.679,-52.144 14.71,-20.508 -0.053,-49.15 -25.263,-49.15 -25.228,0 -39.963,28.657 -25.263,49.15 -36.732,5.78 -70.556,24.05 -95.679,52.144 -25.294,0.098 -31.563,36.126 -8.338,45.375 -8.084,11.274 -14.62,23.52 -19.489,36.396 -67.239,-47.742 -64.708,-47.589 -71.779,-47.589 -3.886,0 -7.518,1.699 -10.23,4.788 -0.299,0.34 -19.873,22.615 -20.143,22.976 -2.976,3.975 -4.195,10.607 1.307,17.31 l 108.312,131.894 c 6.628,12.789 15.021,24.732 25.066,35.478 2.825,3.023 7.569,3.187 10.597,0.358 3.025,-2.827 3.185,-7.571 0.358,-10.597 C 98.997,346.513 96.279,265.49 141.797,209.722 h 33.122 v 34.344 h -5.384 c -5.554,0 -10.073,4.52 -10.073,10.074 v 40.873 c 0,5.554 4.518,10.073 10.073,10.073 h 25.761 c 5.555,0 10.074,-4.519 10.074,-10.073 V 254.14 c 0,-5.555 -4.518,-10.074 -10.074,-10.074 h -5.382 v -34.344 h 175.184 c 20.934,25.648 32.424,57.845 32.424,91.052 0,59.662 -37.319,113.647 -93.008,134.76 H 202.379 c -13.151,-4.985 -25.488,-11.876 -36.692,-20.492 -3.28,-2.525 -7.989,-1.91 -10.513,1.372 -2.525,3.282 -1.91,7.988 1.372,10.514 18.258,14.043 40.534,23.601 44.478,23.601 113.01,0 105.618,0.209 107.437,-0.463 28.276,-10.422 52.737,-28.455 71.098,-52.338 78.994,32.946 157.945,-47.46 124.595,-125.717 z M 97.496,332.421 15.51,232.582 33.358,212.256 c 0.008,0.006 66.443,47.175 66.452,47.181 -6.3,23.458 -7.171,48.862 -2.314,72.984 z M 253.446,76.433 c 8.869,0 16.085,7.216 16.085,16.085 0,8.869 -7.216,16.086 -16.085,16.086 -8.87,0 -16.086,-7.217 -16.086,-16.086 0,-8.869 7.217,-16.085 16.086,-16.085 z m -63.073,182.631 v 31.03 h -15.918 v -31.03 z m 191.786,-72.198 c 0,4.336 -3.527,7.862 -7.861,7.862 H 368.6 c -11.025,0 -225.099,0 -236.007,0 -4.335,0 -7.861,-3.527 -7.861,-7.862 v -1.281 c 0,-4.335 3.527,-7.86 7.861,-7.86 10.795,0 38.001,0 49.398,0 4.142,0 7.497,-3.356 7.497,-7.497 0,-4.142 -3.356,-7.497 -7.497,-7.497 h -28.494 c 56.424,-52.188 143.522,-52.143 199.897,0 H 207.655 c -4.142,0 -7.497,3.356 -7.497,7.497 0,4.142 3.356,7.497 7.497,7.497 173.355,0 163.648,0.096 164.962,-0.196 0.541,0.124 1.103,0.196 1.681,0.196 4.335,0 7.861,3.526 7.861,7.86 z m 30.355,113.91 c 0,-13.337 -1.685,-26.524 -4.934,-39.272 30.034,-5.404 57.345,17.829 57.345,47.951 0,32.31 -31.131,55.893 -62.337,46.782 6.542,-17.583 9.926,-36.289 9.926,-55.461 z"
   id="path2"
   inkscape:connector-curvature="0" />
	</g>
</g>
<g
   id="g8"
   transform="translate(0,0.00201416)">
</g>
<g
   id="g10"
   transform="translate(0,0.00201416)">
</g>
<g
   id="g12"
   transform="translate(0,0.00201416)">
</g>
<g
   id="g14"
   transform="translate(0,0.00201416)">
</g>
<g
   id="g16"
   transform="translate(0,0.00201416)">
</g>
<g
   id="g18"
   transform="translate(0,0.00201416)">
</g>
<g
   id="g20"
   transform="translate(0,0.00201416)">
</g>
<g
   id="g22"
   transform="translate(0,0.00201416)">
</g>
<g
   id="g24"
   transform="translate(0,0.00201416)">
</g>
<g
   id="g26"
   transform="translate(0,0.00201416)">
</g>
<g
   id="g28"
   transform="translate(0,0.00201416)">
</g>
<g
   id="g30"
   transform="translate(0,0.00201416)">
</g>
<g
   id="g32"
   transform="translate(0,0.00201416)">
</g>
<g
   id="g34"
   transform="translate(0,0.00201416)">
</g>
<g
   id="g36"
   transform="translate(0,0.00201416)">
</g>
</svg>